<svg width="500" height="500" viewBox="0 0 500 500" fill="none" xmlns="http://www.w3.org/2000/svg">
<rect width="500" height="500" fill="#EE00C0"/>
<path d="M397.398 240.133H398.838C405.269 240.133 410.383 242.208 414.171 246.349C417.958 250.489 419.847 256.343 419.847 263.901C419.847 271.458 417.949 277.312 414.171 281.452C410.383 285.593 405.269 287.668 398.838 287.668H397.398C390.967 287.668 385.853 285.593 382.065 281.452C378.277 277.312 376.379 271.458 376.379 263.901C376.379 256.343 378.277 250.489 382.056 246.349C385.834 242.208 390.957 240.133 397.398 240.133ZM397.398 300.223H398.838C409.419 300.223 417.91 296.948 424.303 290.39C430.695 283.832 433.882 274.999 433.882 263.891C433.882 252.783 430.686 243.95 424.303 237.392C417.91 230.834 409.428 227.559 398.838 227.559H397.398C386.807 227.559 378.325 230.834 371.933 237.392C365.54 243.95 362.354 252.783 362.354 263.891C362.354 274.999 365.55 283.832 371.933 290.39C378.315 296.948 386.807 300.223 397.398 300.223ZM268.451 298.862H332.929L334.37 297.491V287.658L332.929 286.288H311.91L310.546 284.86V202.374L309.105 200.937H275.492L274.052 202.374V212.14L275.492 213.577H295.07L296.511 214.948V284.86L295.07 286.297H268.442L267.068 287.668V297.5L268.451 298.862ZM198.373 240.133H199.813C206.244 240.133 211.358 242.208 215.146 246.349C218.934 250.489 220.823 256.343 220.823 263.901C220.823 271.458 218.934 277.312 215.146 281.452C211.358 285.593 206.254 287.668 199.813 287.668H198.373C191.942 287.668 186.828 285.593 183.04 281.452C179.253 277.312 177.364 271.458 177.364 263.901C177.364 256.343 179.253 250.489 183.04 246.349C186.828 242.208 191.942 240.133 198.373 240.133ZM198.373 300.223H199.813C210.395 300.223 218.886 296.948 225.278 290.39C231.671 283.832 234.857 274.999 234.857 263.891C234.857 252.783 231.661 243.95 225.278 237.392C218.886 230.834 210.404 227.559 199.813 227.559H198.373C187.783 227.559 179.3 230.834 172.908 237.392C166.516 243.95 163.329 252.783 163.329 263.891C163.329 274.999 166.525 283.832 172.908 290.39C179.3 296.948 187.783 300.223 198.373 300.223ZM68.0623 298.862H73.6724L76.4774 297.491L98.8605 273.657H100.301L122.751 297.491L125.556 298.862H131.1L132.54 297.491V287.658L108.716 263.901V262.53L131.1 240.133V230.301L129.735 228.93H124.125L121.32 230.301L100.301 252.697H98.8605L77.8513 230.301L75.0463 228.93H69.4362L68.0623 230.301V240.133L90.5122 262.53V263.901L66.6216 287.668V297.5L68.0623 298.862Z" fill="white"/>
</svg>
